<?xml version="1.0" encoding="UTF-8"?>
<svg enable-background="new 0 0 440 72.8" version="1.1" viewBox="0 0 440 72.8" xml:space="preserve" xmlns="http://www.w3.org/2000/svg">
<style type="text/css">
	.st0{fill:url(#a);}
	.st1{fill:url(#SVGID_00000103230997486530943000000010107963549432169111_);}
	.st2{fill:url(#SVGID_00000033359400220506506880000013505584494785524363_);}
	.st3{fill:url(#SVGID_00000090256469148691089290000005167332937409142947_);}
	.st4{fill:url(#SVGID_00000151508675144089358890000007592223400870078379_);}
	.st5{fill:url(#SVGID_00000080201488025794303510000012650918529950963878_);}
	.st6{fill:#FFFFFF;}
	.st7{font-family:'SegoeUI-Semibold';}
	.st8{font-size:13px;}
	.st9{fill:#64B4E4;}
</style>

	
		<linearGradient id="a" x1="32.5" x2="32.5" y2="45" gradientUnits="userSpaceOnUse">
			<stop stop-color="#16123F" offset="1.0656e-7"/>
			<stop stop-color="#2E2C76" offset="1"/>
		</linearGradient>
		<path class="st0" d="m59 45h-53c-3.3 0-6-2.7-6-6v-33c0-3.3 2.7-6 6-6h53c3.3 0 6 2.7 6 6v33c0 3.3-2.7 6-6 6z"/>
		
			<linearGradient id="c" x1="107.5" x2="107.5" y2="45" gradientUnits="userSpaceOnUse">
			<stop stop-color="#16123F" offset="1.0656e-7"/>
			<stop stop-color="#2E2C76" offset="1"/>
		</linearGradient>
		<path d="m134 45h-53c-3.3 0-6-2.7-6-6v-33c0-3.3 2.7-6 6-6h53c3.3 0 6 2.7 6 6v33c0 3.3-2.7 6-6 6z" fill="url(#c)"/>
		
			<linearGradient id="b" x1="182.5" x2="182.5" y2="45" gradientUnits="userSpaceOnUse">
			<stop stop-color="#16123F" offset="1.0656e-7"/>
			<stop stop-color="#2E2C76" offset="1"/>
		</linearGradient>
		<path d="m209 45h-53c-3.3 0-6-2.7-6-6v-33c0-3.3 2.7-6 6-6h53c3.3 0 6 2.7 6 6v33c0 3.3-2.7 6-6 6z" fill="url(#b)"/>
		
			<linearGradient id="d" x1="257.5" x2="257.5" y2="45" gradientUnits="userSpaceOnUse">
			<stop stop-color="#16123F" offset="1.0656e-7"/>
			<stop stop-color="#2E2C76" offset="1"/>
		</linearGradient>
		<path d="m284 45h-53c-3.3 0-6-2.7-6-6v-33c0-3.3 2.7-6 6-6h53c3.3 0 6 2.7 6 6v33c0 3.3-2.7 6-6 6z" fill="url(#d)"/>
		
			<linearGradient id="e" x1="332.5" x2="332.5" y2="45" gradientUnits="userSpaceOnUse">
			<stop stop-color="#16123F" offset="1.0656e-7"/>
			<stop stop-color="#2E2C76" offset="1"/>
		</linearGradient>
		<path d="m359 45h-53c-3.3 0-6-2.7-6-6v-33c0-3.3 2.7-6 6-6h53c3.3 0 6 2.7 6 6v33c0 3.3-2.7 6-6 6z" fill="url(#e)"/>
		
			<linearGradient id="f" x1="407.5" x2="407.5" y2="45" gradientUnits="userSpaceOnUse">
			<stop stop-color="#16123F" offset="1.0656e-7"/>
			<stop stop-color="#2E2C76" offset="1"/>
		</linearGradient>
		<path d="m434 45h-53c-3.3 0-6-2.7-6-6v-33c0-3.3 2.7-6 6-6h53c3.3 0 6 2.7 6 6v33c0 3.3-2.7 6-6 6z" fill="url(#f)"/>
		<text class="st6 st7 st8" transform="translate(28.865 27.692)">6</text>
		<text class="st6 st7 st8" transform="translate(102.46 27.692)">5</text>
		<text class="st6 st7 st8" transform="translate(178.89 27.692)">4</text>
		<text class="st6 st7 st8" transform="translate(329.03 27.692)">2</text>
		<text class="st6 st7 st8" transform="translate(405.02 27.692)">1</text>
		<text class="st6 st7 st8" transform="translate(254.03 27.692)">3</text>
	
	
		<polygon class="st9" points="408.1 63.9 387.8 55 387.8 61.4 311.9 61.4 311.9 66.4 387.8 66.4 387.8 72.8"/>
		<polygon class="st9" points="270.1 63.9 249.8 55 249.8 61.4 173.9 61.4 173.9 66.4 249.8 66.4 249.8 72.8"/>
		<polygon class="st9" points="128.1 63.9 107.8 55 107.8 61.4 31.9 61.4 31.9 66.4 107.8 66.4 107.8 72.8"/>
	

</svg>
