<?xml version="1.0" encoding="UTF-8"?>
<svg enable-background="new 0 0 460 93" version="1.1" viewBox="0 0 460 93" xml:space="preserve" xmlns="http://www.w3.org/2000/svg" xmlns:xlink="http://www.w3.org/1999/xlink">
<style type="text/css">
	.st0{fill:#181819;stroke:#FFFFFF;stroke-miterlimit:10;}
	.st1{fill:#FFFFFF;}
	.st2{fill:#2F67B2;}
</style>
<symbol id="a" viewBox="-32.5 -22.5 65 45">
	
		<path class="st0" d="m26-22h-52c-3.3 0-6 2.7-6 6v32c0 3.3 2.7 6 6 6h52c3.3 0 6-2.7 6-6v-32c0-3.3-2.7-6-6-6z"/>
	
</symbol>
<path class="st1" d="m454 93h-448c-3.3 0-6-2.7-6-6v-81c0-3.3 2.7-6 6-6h448c3.3 0 6 2.7 6 6v81c0 3.3-2.7 6-6 6z"/>

	
		<use transform="matrix(1 0 0 -1 42.5 32.5)" x="-32.5" y="-22.5" width="65" height="45" xlink:href="#a"/>


	
		<use transform="matrix(1 0 0 -1 117.5 32.5)" x="-32.5" y="-22.5" width="65" height="45" xlink:href="#a"/>


	
		<use transform="matrix(1 0 0 -1 192.5 32.5)" x="-32.5" y="-22.5" width="65" height="45" xlink:href="#a"/>


	
		<use transform="matrix(1 0 0 -1 267.5 32.5)" x="-32.5" y="-22.5" width="65" height="45" xlink:href="#a"/>


	
		<use transform="matrix(1 0 0 -1 342.5 32.5)" x="-32.5" y="-22.5" width="65" height="45" xlink:href="#a"/>


	
		<use transform="matrix(1 0 0 -1 417.5 32.5)" x="-32.5" y="-22.5" width="65" height="45" xlink:href="#a"/>

<polygon class="st2" points="403.1 73.9 382.8 65 382.8 71.4 306.9 71.4 306.9 76.4 382.8 76.4 382.8 82.8"/>
<polygon class="st2" points="265.1 73.9 244.8 65 244.8 71.4 168.9 71.4 168.9 76.4 244.8 76.4 244.8 82.8"/>
<polygon class="st2" points="123.1 73.9 102.8 65 102.8 71.4 26.9 71.4 26.9 76.4 102.8 76.4 102.8 82.8"/>

	<path class="st1" d="m45.5 34.1c0 0.4-0.1 0.9-0.2 1.2-0.1 0.4-0.4 0.7-0.6 1-0.3 0.3-0.6 0.5-0.9 0.6-0.4 0.1-0.8 0.2-1.2 0.2s-0.9-0.1-1.2-0.3c-0.4-0.2-0.7-0.4-1-0.8-0.3-0.3-0.5-0.8-0.6-1.3s-0.2-1.1-0.2-1.8c0-0.8 0.1-1.6 0.3-2.2s0.5-1.2 0.8-1.6 0.8-0.8 1.2-1c0.5-0.2 1-0.3 1.5-0.3 0.3 0 0.6 0 0.9 0.1 0.3 0 0.5 0.1 0.7 0.2v1.3c-0.2-0.1-0.4-0.2-0.7-0.3-0.2-0.1-0.5-0.1-0.8-0.1-0.4 0-0.7 0.1-1 0.2s-0.6 0.3-0.8 0.6-0.4 0.6-0.5 1c-0.2 0.5-0.2 1-0.2 1.5 0.2-0.3 0.5-0.5 0.8-0.7s0.7-0.3 1.2-0.3c0.4 0 0.7 0.1 1.1 0.2 0.3 0.1 0.6 0.3 0.8 0.5s0.4 0.5 0.5 0.9c0 0.4 0.1 0.8 0.1 1.2zm-1.5 0.1c0-0.3 0-0.5-0.1-0.7s-0.2-0.4-0.3-0.5c-0.1-0.2-0.3-0.3-0.5-0.4s-0.4-0.1-0.7-0.1-0.5 0-0.7 0.1-0.3 0.2-0.5 0.4c-0.1 0.1-0.2 0.3-0.3 0.5 0.2 0.2 0.1 0.3 0.1 0.5s0 0.4 0.1 0.6l0.3 0.6s0.3 0.3 0.5 0.5c0.2 0.1 0.4 0.2 0.7 0.2 0.2 0 0.4 0 0.6-0.1s0.3-0.2 0.5-0.4c0.1-0.2 0.2-0.3 0.3-0.5v-0.7z"/>


	<path class="st1" d="m114.9 36.7v-1.4c0.6 0.4 1.2 0.6 1.8 0.6s1.1-0.2 1.5-0.5 0.6-0.7 0.6-1.2-0.2-0.9-0.6-1.2-0.9-0.4-1.6-0.4c-0.2 0-0.7 0-1.5 0.1l0.3-4.7h4.4v1.2h-3.2l-0.1 2.2h0.8c1 0 1.7 0.2 2.2 0.7s0.8 1.1 0.8 2-0.3 1.6-0.9 2.1-1.4 0.8-2.4 0.8c-1.1 0-1.7-0.1-2.1-0.3z"/>


	<path class="st1" d="m194.5 28v5.7h1.3v1.2h-1.3v2h-1.4v-2h-4.1v-1.2c0.4-0.4 0.7-0.9 1.1-1.3 0.4-0.5 0.8-1 1.1-1.5 0.4-0.5 0.7-1 1-1.5s0.6-1 0.8-1.4h1.5zm-1.4 5.7v-3.7c-0.5 0.8-0.9 1.5-1.3 2.1s-0.9 1.1-1.2 1.6h2.5z"/>


	<path class="st1" d="m264.7 36.5v-1.4c0.6 0.5 1.2 0.7 2 0.7 0.6 0 1.1-0.1 1.4-0.4s0.5-0.6 0.5-1.1c0-1-0.8-1.5-2.3-1.5h-0.7v-1.2h0.7c1.4 0 2.1-0.5 2.1-1.4s-0.5-1.3-1.6-1.3c-0.6 0-1.2 0.2-1.7 0.6v-1.3c0.6-0.3 1.3-0.5 2.2-0.5 0.8 0 1.4 0.2 1.9 0.6s0.7 0.9 0.7 1.5c0 1.2-0.6 1.9-1.8 2.3 0.6 0.1 1.2 0.3 1.5 0.7s0.6 0.9 0.6 1.4c0 0.8-0.3 1.4-0.9 1.9s-1.4 0.7-2.4 0.7c-1 0.2-1.7 0.1-2.2-0.3z"/>


	<path class="st1" d="m345.1 36.9h-5.6v-0.7c0-0.3 0-0.5 0.1-0.8 0.1-0.2 0.2-0.5 0.3-0.7s0.3-0.4 0.5-0.6l0.6-0.6c0.2-0.2 0.4-0.4 0.6-0.5 0.2-0.2 0.4-0.3 0.6-0.5s0.4-0.3 0.5-0.5c0.2-0.2 0.3-0.3 0.4-0.5s0.2-0.3 0.3-0.5 0.1-0.4 0.1-0.6 0-0.4-0.1-0.6-0.2-0.3-0.3-0.4-0.3-0.2-0.5-0.3-0.4-0.1-0.6-0.1c-0.4 0-0.7 0.1-1.1 0.3s-0.7 0.4-1.1 0.8v-1.4c0.2-0.1 0.4-0.3 0.6-0.4l0.6-0.3c0.2-0.1 0.4-0.1 0.6-0.2s0.5 0 0.7 0c0.4 0 0.8 0.1 1.1 0.2s0.6 0.3 0.8 0.5 0.4 0.5 0.5 0.8 0.2 0.7 0.2 1.1 0 0.7-0.1 1-0.2 0.6-0.4 0.8-0.4 0.5-0.6 0.7-0.5 0.5-0.8 0.7c-0.2 0.2-0.5 0.4-0.7 0.6s-0.5 0.4-0.6 0.5c-0.2 0.2-0.3 0.4-0.5 0.5-0.1 0.2-0.2 0.4-0.2 0.5h4v1.2z"/>


	<path class="st1" d="m418.7 27.8v9.1h-1.5v-7.3c-0.3 0.2-0.5 0.3-0.8 0.5-0.3 0.1-0.6 0.2-1 0.3v-1.2c0.2-0.1 0.5-0.2 0.7-0.2 0.2-0.1 0.4-0.2 0.7-0.3 0.2-0.1 0.4-0.2 0.7-0.4 0.2-0.1 0.5-0.3 0.7-0.5h0.5z"/>

</svg>
