<?xml version="1.0" encoding="UTF-8"?>
<svg enable-background="new 0 0 460 203" version="1.1" viewBox="0 0 460 203" xml:space="preserve" xmlns="http://www.w3.org/2000/svg" xmlns:xlink="http://www.w3.org/1999/xlink">
<style type="text/css">
	.st0{fill:#181819;stroke:#FFFFFF;stroke-miterlimit:10;}
	.st1{fill:#FFFFFF;}
	.st2{fill:#2F67B2;}
</style>
<symbol id="a" viewBox="-32.5 -22.5 65 45">
	
		<path class="st0" d="m26-22h-52c-3.3 0-6 2.7-6 6v32c0 3.3 2.7 6 6 6h52c3.3 0 6-2.7 6-6v-32c0-3.3-2.7-6-6-6z"/>
	
</symbol>
<path class="st1" d="m454 203h-448c-3.3 0-6-2.7-6-6v-191c0-3.3 2.7-6 6-6h448c3.3 0 6 2.7 6 6v191c0 3.3-2.7 6-6 6z"/>

	
		<use transform="matrix(1 0 0 -1 42.5 32.5)" x="-32.5" y="-22.5" width="65" height="45" xlink:href="#a"/>
	
		<use transform="matrix(1 0 0 -1 117.5 32.5)" x="-32.5" y="-22.5" width="65" height="45" xlink:href="#a"/>
	
		<use transform="matrix(1 0 0 -1 192.5 32.5)" x="-32.5" y="-22.5" width="65" height="45" xlink:href="#a"/>
	
		<use transform="matrix(1 0 0 -1 117.5 87.5)" x="-32.5" y="-22.5" width="65" height="45" xlink:href="#a"/>
	
		<use transform="matrix(1 0 0 -1 192.5 87.5)" x="-32.5" y="-22.5" width="65" height="45" xlink:href="#a"/>
	
		<use transform="matrix(1 0 0 -1 267.5 32.5)" x="-32.5" y="-22.5" width="65" height="45" xlink:href="#a"/>
	
		<use transform="matrix(1 0 0 -1 342.5 32.5)" x="-32.5" y="-22.5" width="65" height="45" xlink:href="#a"/>
	
		<use transform="matrix(1 0 0 -1 342.5 142.5)" x="-32.5" y="-22.5" width="65" height="45" xlink:href="#a"/>
	
		<use transform="matrix(1 0 0 -1 417.5 32.5)" x="-32.5" y="-22.5" width="65" height="45" xlink:href="#a"/>
	
		<path class="st1" d="m45.5 32c0 0.9-0.1 1.7-0.3 2.3-0.2 0.7-0.5 1.2-0.8 1.6s-0.7 0.7-1.2 0.9-1 0.3-1.5 0.3h-0.5c-0.2 0-0.3 0-0.5-0.1-0.2 0-0.3-0.1-0.4-0.1s-0.2-0.1-0.3-0.1v-1.3c0.1 0.1 0.2 0.1 0.3 0.2s0.3 0.1 0.4 0.2c0.2 0 0.3 0.1 0.5 0.1h0.5c0.4 0 0.7-0.1 1-0.2s0.5-0.3 0.8-0.6 0.4-0.6 0.5-1 0.2-0.9 0.2-1.4c-0.1 0.1-0.2 0.3-0.3 0.4s-0.3 0.2-0.4 0.3c-0.2 0.1-0.3 0.2-0.5 0.2-0.2 0.1-0.4 0.1-0.6 0.1-0.4 0-0.7-0.1-1.1-0.2-0.3-0.1-0.6-0.3-0.9-0.6s-0.4-0.5-0.6-0.9c-0.1-0.4-0.2-0.7-0.2-1.2s0.1-0.9 0.2-1.3c0.2-0.4 0.4-0.7 0.6-1 0.3-0.3 0.6-0.5 1-0.6s0.8-0.2 1.2-0.2 0.8 0.1 1.2 0.2c0.4 0.2 0.7 0.4 1 0.7s0.5 0.8 0.7 1.3v2zm-1.5-1c0-0.3 0-0.6-0.1-0.8s-0.2-0.5-0.3-0.6-0.3-0.3-0.5-0.4c-0.2-0.2-0.4-0.2-0.7-0.2-0.2 0-0.4 0-0.6 0.1s-0.3 0.2-0.5 0.4c-0.1 0.2-0.2 0.3-0.3 0.6s-0.1 0.5-0.1 0.7c0 0.3 0 0.5 0.1 0.8l0.3 0.6c0.1 0.2 0.3 0.3 0.5 0.3 0.2 0.1 0.4 0.1 0.7 0.1 0.2 0 0.4 0 0.6-0.1s0.3-0.2 0.5-0.3c0.1-0.1 0.2-0.3 0.3-0.5s0.1-0.5 0.1-0.7z"/>
	
	
		<path class="st1" d="m114.5 34.5c0-0.3 0-0.5 0.1-0.8 0.1-0.2 0.2-0.5 0.3-0.7s0.3-0.4 0.5-0.6 0.4-0.3 0.7-0.4c-0.4-0.2-0.7-0.5-0.9-0.8s-0.3-0.7-0.3-1.1c0-0.3 0.1-0.6 0.2-0.9s0.3-0.5 0.6-0.7c0.2-0.2 0.5-0.4 0.9-0.5 0.3-0.1 0.7-0.2 1.1-0.2s0.8 0.1 1.1 0.2 0.6 0.3 0.9 0.5c0.2 0.2 0.4 0.5 0.6 0.7s0.2 0.6 0.2 0.9c0 0.4-0.1 0.8-0.3 1.1s-0.5 0.6-0.9 0.8c0.3 0.1 0.5 0.2 0.7 0.4s0.4 0.3 0.5 0.6 0.2 0.4 0.3 0.7 0.1 0.5 0.1 0.8c0 0.4-0.1 0.8-0.2 1.1s-0.4 0.6-0.6 0.8c-0.3 0.2-0.6 0.4-1 0.5s-0.8 0.2-1.2 0.2-0.9-0.1-1.2-0.2c-0.4-0.1-0.7-0.3-1-0.5s-0.5-0.5-0.6-0.8c-0.6-0.3-0.6-0.7-0.6-1.1zm1.4-0.1c0 0.3 0 0.5 0.1 0.7s0.2 0.4 0.3 0.5 0.3 0.3 0.5 0.3c0.2 0.1 0.4 0.1 0.7 0.1 0.2 0 0.4 0 0.6-0.1s0.4-0.2 0.5-0.3 0.3-0.3 0.3-0.5c0.1-0.2 0.1-0.4 0.1-0.7 0-0.2 0-0.5-0.1-0.7s-0.2-0.4-0.3-0.5-0.3-0.3-0.5-0.4-0.4-0.1-0.7-0.1c-0.2 0-0.4 0-0.6 0.1s-0.4 0.2-0.5 0.3c-0.1 0.2-0.3 0.3-0.3 0.5s-0.1 0.5-0.1 0.8zm0.3-4.1c0 0.2 0 0.4 0.1 0.5 0.1 0.2 0.2 0.3 0.3 0.4s0.2 0.2 0.4 0.3 0.3 0.1 0.5 0.1 0.3 0 0.5-0.1 0.3-0.2 0.4-0.3 0.2-0.3 0.3-0.4c0.1-0.2 0.1-0.3 0.1-0.5s0-0.4-0.1-0.5c-0.1-0.2-0.2-0.3-0.3-0.4s-0.2-0.2-0.4-0.3-0.3-0.1-0.5-0.1-0.4 0-0.5 0.1c-0.2 0.1-0.3 0.2-0.4 0.3s-0.2 0.3-0.3 0.4-0.1 0.3-0.1 0.5z"/>
	
	
		<path class="st1" d="m189.8 36.8v-1.4c0.6 0.4 1.2 0.6 1.8 0.6s1.1-0.2 1.5-0.5 0.6-0.7 0.6-1.3c0-0.5-0.2-0.9-0.6-1.2s-0.9-0.4-1.6-0.4c-0.2 0-0.7 0-1.5 0.1l0.3-4.8h4.5v1.3h-3.3l-0.2 2.3h0.8c1 0 1.7 0.2 2.2 0.7s0.8 1.2 0.8 2c0 0.9-0.3 1.6-0.9 2.2-0.6 0.5-1.4 0.8-2.5 0.8-0.8-0.1-1.5-0.2-1.9-0.4z"/>
	
	
		<path class="st1" d="m339.7 36.7v-1.4c0.6 0.5 1.3 0.7 2 0.7 0.6 0 1.1-0.1 1.5-0.4s0.5-0.6 0.5-1.1c0-1-0.8-1.5-2.4-1.5h-0.7v-1.2h0.7c1.4 0 2.1-0.5 2.1-1.5 0-0.9-0.5-1.3-1.6-1.3-0.6 0-1.2 0.2-1.7 0.7v-1.3c0.6-0.3 1.3-0.5 2.2-0.5 0.8 0 1.5 0.2 1.9 0.6 0.5 0.4 0.7 0.9 0.7 1.6 0 1.2-0.6 2-1.8 2.3 0.7 0.1 1.2 0.3 1.6 0.7s0.6 0.9 0.6 1.5c0 0.8-0.3 1.5-0.9 2s-1.4 0.8-2.4 0.8c-1-0.2-1.7-0.4-2.3-0.7z"/>
	
	
		<path class="st1" d="m419.2 27.8v9.3h-1.5v-7.5c-0.3 0.2-0.6 0.4-0.9 0.5s-0.7 0.3-1.1 0.4v-1.3c0.2-0.1 0.5-0.2 0.7-0.3s0.5-0.2 0.7-0.3 0.4-0.2 0.7-0.4 0.5-0.3 0.7-0.5h0.7z"/>
	
	
		<path class="st1" d="m269.6 27.9v5.9h1.4v1.2h-1.4v2h-1.4v-2h-4.2v-1.2c0.4-0.4 0.8-0.9 1.1-1.4 0.4-0.5 0.8-1 1.1-1.5 0.4-0.5 0.7-1 1-1.5s0.6-1 0.8-1.5h1.6zm-1.4 5.9v-3.8c-0.5 0.8-0.9 1.6-1.4 2.2s-0.9 1.2-1.3 1.7h2.7z"/>
	
	<polygon class="st2" points="403.1 183.9 382.8 175 382.8 181.4 306.9 181.4 306.9 186.4 382.8 186.4 382.8 192.8"/>
	<polygon class="st2" points="265.1 183.9 244.8 175 244.8 181.4 168.9 181.4 168.9 186.4 244.8 186.4 244.8 192.8"/>
	<polygon class="st2" points="123.1 183.9 102.8 175 102.8 181.4 26.9 181.4 26.9 186.4 102.8 186.4 102.8 192.8"/>
	
		<path class="st1" d="m120.5 83.7c-0.4 0.7-0.7 1.4-1.1 2.1-0.3 0.7-0.6 1.4-0.9 2.1s-0.5 1.4-0.7 2.1-0.4 1.4-0.5 2.1h-1.5c0.1-0.7 0.2-1.3 0.4-2 0.2-0.6 0.4-1.3 0.7-1.9s0.5-1.3 0.9-2c0.3-0.7 0.7-1.3 1-2h-4.3v-1.3h6.1v0.8z"/>
	
	
		<path class="st1" d="m195.6 89.1c0 0.5-0.1 0.9-0.2 1.3-0.2 0.4-0.4 0.7-0.6 1-0.3 0.3-0.6 0.5-0.9 0.6-0.4 0.1-0.8 0.2-1.2 0.2-0.5 0-0.9-0.1-1.3-0.3s-0.7-0.4-1-0.8-0.5-0.8-0.6-1.3c-0.2-0.5-0.2-1.1-0.2-1.8 0-0.8 0.1-1.6 0.3-2.2 0.2-0.7 0.5-1.2 0.8-1.6s0.8-0.8 1.2-1 1-0.3 1.5-0.3c0.3 0 0.7 0 0.9 0.1 0.3 0 0.5 0.1 0.7 0.2v1.3c-0.2-0.1-0.4-0.2-0.7-0.3s-0.5-0.1-0.8-0.1c-0.4 0-0.7 0.1-1 0.2s-0.6 0.4-0.8 0.6c-0.2 0.3-0.4 0.6-0.5 1s-0.2 0.9-0.2 1.4c0.2-0.3 0.5-0.5 0.8-0.7s0.7-0.3 1.2-0.3c0.4 0 0.8 0.1 1.1 0.2s0.6 0.3 0.8 0.6c0.2 0.2 0.4 0.5 0.5 0.9 0.1 0.3 0.2 0.7 0.2 1.1zm-1.5 0.1c0-0.3 0-0.5-0.1-0.7l-0.3-0.6c-0.1-0.2-0.3-0.3-0.5-0.4s-0.4-0.1-0.7-0.1-0.5 0-0.7 0.1-0.4 0.2-0.5 0.4-0.2 0.3-0.3 0.5-0.1 0.4-0.1 0.6 0 0.4 0.1 0.7l0.3 0.6s0.3 0.3 0.5 0.5c0.2 0.1 0.4 0.2 0.7 0.2 0.2 0 0.5 0 0.6-0.1s0.3-0.2 0.5-0.4c0.1-0.2 0.2-0.3 0.3-0.6 0.1-0.2 0.2-0.4 0.2-0.7z"/>
	
	
		<path class="st1" d="m345.4 147.1h-5.7v-0.7c0-0.3 0-0.6 0.1-0.8 0.1-0.3 0.2-0.5 0.3-0.7s0.3-0.4 0.5-0.6l0.6-0.6c0.2-0.2 0.4-0.4 0.6-0.5 0.2-0.2 0.4-0.3 0.6-0.5s0.4-0.3 0.5-0.5c0.2-0.2 0.3-0.3 0.4-0.5s0.2-0.3 0.3-0.5 0.1-0.4 0.1-0.6 0-0.5-0.1-0.6c-0.1-0.2-0.2-0.3-0.3-0.5-0.1-0.1-0.3-0.2-0.5-0.3s-0.4-0.1-0.6-0.1c-0.4 0-0.8 0.1-1.1 0.3-0.4 0.2-0.8 0.4-1.1 0.8v-1.4c0.2-0.1 0.4-0.3 0.6-0.4s0.4-0.2 0.6-0.3 0.4-0.1 0.6-0.2c0.2 0 0.5-0.1 0.7-0.1 0.4 0 0.8 0.1 1.1 0.2s0.6 0.3 0.9 0.5c0.2 0.2 0.4 0.5 0.5 0.8s0.2 0.7 0.2 1.1 0 0.7-0.1 1-0.2 0.6-0.4 0.8-0.4 0.5-0.6 0.7-0.5 0.5-0.8 0.7c-0.2 0.2-0.5 0.4-0.7 0.6s-0.5 0.4-0.7 0.6l-0.5 0.5c-0.1 0.2-0.2 0.4-0.2 0.5h4.1v1.3z"/>
	

</svg>
