<svg xmlns="http://www.w3.org/2000/svg" xml:space="preserve" style="enable-background:new 0 0 518.3 247.2" viewBox="0 0 518.3 247.2"><style>.st0{fill:#fff}.st8{fill:none;stroke:#000;stroke-miterlimit:10}</style><path id="Layer_1" d="M512.3 247.2H6c-3.3 0-6-2.7-6-6V6c0-3.3 2.7-6 6-6h506.3c3.3 0 6 2.7 6 6v235.2c0 3.4-2.6 6-6 6z" class="st0"/><g id="Layer_2"><path d="M171 27.4h-3.3l-3.1-4.5h-.1v4.5h-2.6v-4.5h-.1l-3.1 4.5h-3.2l4.1-5.6-3.9-5.1h3l3.2 4.3h.1v-4.3h2.6V21h.1l3.2-4.3h3l-3.9 5.1 4 5.6zM171.8 27.4v-8.1h2.6v4.6h.1l2.8-4.6h2.6v8.1h-2.6v-4.7h-.1l-2.8 4.7h-2.6zM181 24.6h2.5c.2.7.7 1 1.4 1s1.1-.3 1.1-.8-.4-.7-1.1-.7h-1.1v-1.6h1c.6 0 1-.2 1-.7 0-.5-.3-.7-1-.7s-1.1.3-1.2.9h-2.5c.1-1.8 1.5-2.8 3.6-2.8 2.3 0 3.6.9 3.6 2.4 0 .8-.4 1.4-1.2 1.7v.1c.9.3 1.5.9 1.5 1.8 0 1.6-1.4 2.6-3.8 2.6-2.2-.2-3.7-1.3-3.8-3.2zM195.1 24.2h-2.7v3.2h-2.6v-8.1h2.6v3h2.7v-3h2.6v8.1h-2.6v-3.2zM206.9 24.8c-.3 1.7-1.7 2.8-3.9 2.8-2.6 0-4.1-1.6-4.1-4.2s1.6-4.3 4-4.3 4 1.6 4 4.1v.7h-5.5v.2c0 1 .6 1.6 1.6 1.6.7 0 1.3-.3 1.4-.9h2.5zm-5.4-2.4h2.9c0-.9-.6-1.4-1.5-1.4-.7-.1-1.3.5-1.4 1.4zM213.4 24.2h-2.7v3.2h-2.6v-8.1h2.6v3h2.7v-3h2.6v8.1h-2.6v-3.2zM222.8 24.2h-2.7v3.2h-2.6v-8.1h2.6v3h2.7v-3h2.6v8.1h-2.6v-3.2zM226.8 19.3h2.6v2.2h1.6c1.9 0 3.2 1.1 3.2 2.9 0 1.8-1.2 2.9-3.2 2.9h-4.2v-8zm2.6 4.1v2.1h1.1c.7 0 1.1-.4 1.1-1s-.4-1-1.1-1h-1.1zm5.5-4.1h2.6v8.1h-2.6v-8.1zM239 27.4v-8.1h2.6v4.6h.1l2.8-4.6h2.6v8.1h-2.6v-4.7h-.1l-2.8 4.7H239zm2.8-11.9c0 .8.5 1.3 1.2 1.3s1.2-.5 1.2-1.3h1.5c0 1.5-1.1 2.5-2.7 2.5-1.7 0-2.7-1-2.7-2.5h1.5zM258 29.4v-2.1h-6.7v-8.1h2.6v6.2h2.6v-6.2h2.6v6.2h1.2v4H258zM261.3 27.4v-8.1h2.6v4.6h.1l2.8-4.6h2.6v8.1h-2.6v-4.7h-.1l-2.8 4.7h-2.6zM278.9 27.4h-3.1l-2.4-3.3h-.1v3.3h-2.6v-8.1h2.6v3.1h.1l2.3-3.1h2.9l-3 3.7 3.3 4.4zM280 27.5c-.4 0-.7-.1-.8-.1v-2.2c.1 0 .3.1.5.1.8 0 1-.9 1-2.1l.2-3.9h6.6v8.1h-2.6v-6.2h-1.7l-.1 2.1c-.3 2.5-1 4.2-3.1 4.2zM302.2 22c0 3.4-2 5.6-5.3 5.6s-5.3-2.1-5.3-5.6 2.1-5.6 5.3-5.6 5.3 2.2 5.3 5.6zm-7.8 0c0 2 1 3.3 2.5 3.3s2.5-1.3 2.5-3.3c0-2-1-3.3-2.5-3.3s-2.5 1.3-2.5 3.3zM311.7 23.3c0 2.6-1.2 4.2-3.2 4.2-1.2 0-2.1-.6-2.5-1.5v4h-2.6V19.3h2.6v1.4h.1c.4-1 1.3-1.6 2.5-1.6 1.9 0 3.1 1.6 3.1 4.2zm-2.7 0c0-1.3-.6-2.1-1.5-2.1s-1.5.8-1.5 2.1.6 2.1 1.5 2.1c1 0 1.5-.8 1.5-2.1zM320.5 24.8c-.3 1.7-1.7 2.8-3.9 2.8-2.6 0-4.1-1.6-4.1-4.2s1.6-4.3 4-4.3 4 1.6 4 4.1v.7H315v.2c0 1 .6 1.6 1.6 1.6.7 0 1.3-.3 1.4-.9h2.5zm-5.4-2.4h2.9c0-.9-.6-1.4-1.5-1.4-.7-.1-1.3.5-1.4 1.4zM321.6 19.3h2.6v1.5h.1c.3-1.1 1-1.7 1.9-1.7.3 0 .5 0 .7.1v2.2c-.2-.1-.5-.1-.8-.1-1.1 0-1.7.6-1.7 1.8v4.3h-2.6v-8.1zM327 25c0-1.5 1.2-2.4 3.3-2.5l1.9-.1V22c0-.6-.5-1-1.2-1s-1.2.4-1.2.9h-2.4c.1-1.7 1.5-2.8 3.8-2.8 2.2 0 3.6 1.1 3.6 2.7v5.6h-2.6v-1.2h-.1c-.4.8-1.4 1.3-2.4 1.3-1.4 0-2.7-1-2.7-2.5zm5.2-.5v-.6l-1.5.1c-.7.1-1.1.4-1.1.8 0 .5.4.8 1 .8.9.1 1.6-.4 1.6-1.1zM339.4 17.4v1.8h1.5v1.9h-1.5v3.4c0 .6.3.8.9.8h.5v1.9c-.3.1-.6.1-1.2.1-2.1 0-2.9-.6-2.9-2.2v-3.9h-1.1v-1.9h1.1v-1.8h2.7zM341.9 17.3c0-.7.6-1.3 1.4-1.3.8 0 1.3.6 1.3 1.3 0 .7-.6 1.3-1.3 1.3-.8 0-1.4-.6-1.4-1.3zm0 2h2.6v8.1h-2.6v-8.1zM345.6 23.3c0-2.7 1.6-4.2 4.1-4.2 2.5 0 4.1 1.6 4.1 4.2 0 2.7-1.6 4.3-4.1 4.3-2.5 0-4.1-1.6-4.1-4.3zm5.6 0c0-1.5-.6-2.3-1.5-2.3s-1.5.9-1.5 2.3c0 1.5.6 2.3 1.5 2.3s1.5-.8 1.5-2.3zM354.9 19.3h2.6v1.5h.1c.4-1.1 1.3-1.7 2.5-1.7 1.8 0 2.8 1.1 2.8 3.1v5.2h-2.6v-4.6c0-.9-.4-1.5-1.3-1.5-.8 0-1.4.6-1.4 1.5v4.6H355v-8.1z"/><linearGradient id="SVGID_1_" x1="-1754.173" x2="-1750.792" y1="-467.009" y2="-447.838" gradientTransform="matrix(-9.7656 0 0 9.7656 -17005.285 4604.566)" gradientUnits="userSpaceOnUse"><stop offset="0" style="stop-color:#fbae42"/><stop offset="1" style="stop-color:#ef4032"/></linearGradient><path d="M60.1 50.2h96.8c4.7 0 9.3.8 13.7 2.3 6.4 2.3 12.2 6.4 16.6 11.7 4.4 5.3 7.4 11.9 8.4 18.7.4 2.5.5 5.1.5 7.6v94.4c0 3-.1 6.1-.8 9-1.4 6.8-4.6 13.1-9.2 18.2s-10.6 8.9-17.1 11c-4 1.2-8.1 1.8-12.2 1.8-1.8 0-97 0-98.4-.1-7-.3-13.9-2.6-19.7-6.5-5.7-3.8-10.3-9.1-13.3-15.3-2.6-5.3-3.9-11.1-3.9-17V89c-.1-5.8 1.1-11.5 3.6-16.7 2.9-6.1 7.5-11.5 13.2-15.4 5.8-4 12.6-6.3 19.6-6.6.7-.1 1.5-.1 2.2-.1z" style="fill:url(#SVGID_1_)"/><linearGradient id="SVGID_00000146474202411817488470000015243555299332753035_" x1="-27.878" x2="-30.354" y1="765.69" y2="751.65" gradientTransform="matrix(9.7656 0 0 -9.7656 382.71 7530.438)" gradientUnits="userSpaceOnUse"><stop offset="0" style="stop-color:#e3a03a"/><stop offset="1" style="stop-color:#d43c29"/></linearGradient><path d="M168.7 193.1c-.6-1-1.3-1.9-2-2.8-1.7-2-3.7-3.8-5.9-5.3-2.7-1.8-5.9-3-9.2-3.1-2.3-.1-4.6.3-6.8 1.1s-4.3 1.8-6.3 2.9c-2.4 1.2-4.8 2.5-7.3 3.5-3 1.2-6.1 2.2-9.4 2.9-4 .8-8.1 1-12.2 1-7.3-.1-14.6-1.2-21.6-3.3-6.1-1.8-12-4.4-17.5-7.6-4.8-2.8-9.4-6-13.6-9.6-3.5-3-6.7-6.2-9.7-9.6-2-2.4-4-4.9-5.9-7.5-.8-1-1.4-2.1-2-3.2l-18-19.5V89c0-21.4 17.3-38.7 38.6-38.7h34.5l25.5 25.9c57.6 39.2 39 82.4 39 82.4s16.4 18.3 9.8 34.5z" style="fill:url(#SVGID_00000146474202411817488470000015243555299332753035_)"/><path d="M120.1 76.1c57.6 39.2 39 82.4 39 82.4s16.4 18.5 9.8 34.7c0 0-6.8-11.3-18.1-11.3-10.9 0-17.3 11.3-39.3 11.3-48.9 0-72.1-40.9-72.1-40.9 44.1 29 74.2 8.5 74.2 8.5-19.9-11.5-62.1-66.7-62.1-66.7 36.8 31.3 52.7 39.6 52.7 39.6C94.6 125.8 68 87.4 68 87.4c21.3 21.6 63.6 51.7 63.6 51.7 12-33.3-11.5-63-11.5-63z" class="st0"/><path d="M229.7 52.5h121.4v23.8H229.7z" style="fill:#2a84c6"/><path d="M229.7 101.3h121.4v23.8H229.7z" style="fill:#d3a62a"/><path d="M229.7 150h121.4v23.8H229.7z" style="fill:#1f9e48"/><path d="M229.7 198.8h121.4v23.8H229.7z" style="fill:#e1252c"/><path d="M375.7 198.8h121.4v23.8H375.7z" style="fill:#7c4c9e"/><path d="M290.4 76.3v19.2" class="st8"/><path d="m286.4 94.4 4 6.9 4-6.9z"/><path d="M290.4 125.1v19.2" class="st8"/><path d="m286.4 143.1 4 6.9 4-6.9z"/><path d="M290.4 173.8v19.3" class="st8"/><path d="m286.4 191.9 4 6.9 4-6.9z"/><path d="M351.1 64.4s104-7.2 115.7 128.7" class="st8"/><path d="m462.6 192.3 4.6 6.5 3.4-7.2z"/><path d="M351.1 113.2S427 95.5 436 193" class="st8"/><path d="m431.8 192.3 4.6 6.5 3.4-7.2z"/><path d="M351.1 162.2s53.4-11.2 54.7 30.8" class="st8"/><path d="m401.7 191.9 3.9 6.9 4.1-6.9z"/><path d="M273.8 59.1c1.6 0 2.7 1.1 2.7 2.6s-1.1 2.6-2.7 2.6h-2.1v3.2h-.8V59h2.9zm-2.1 4.5h1.9c1.3 0 2.1-.7 2.1-1.9s-.8-1.9-2.1-1.9h-1.9v3.8zM282.3 65.8c-.2 1.1-1.2 1.8-2.5 1.8-1.7 0-2.8-1.2-2.8-3.1 0-1.9 1.1-3.2 2.7-3.2s2.6 1.2 2.6 3v.3h-4.6c0 1.4.8 2.2 2 2.2.9 0 1.6-.5 1.7-1.1h.9zm-4.5-1.8h3.8c0-1.2-.8-2-1.9-2-1 0-1.8.8-1.9 2zM283.4 61.4h.7v1.1c.3-.7 1-1.2 2-1.2 1.3 0 2.2.9 2.2 2.2v3.9h-.8v-3.8c0-1.1-.6-1.7-1.6-1.7-1.1 0-1.8.8-1.8 1.9v3.6h-.8v-6zM289.4 64.5c0-1.9 1.1-3.1 2.6-3.1 1 0 1.8.6 2.1 1.4v-3.6h.8v8.5h-.7v-1.3c-.3.8-1.1 1.4-2.1 1.4-1.7-.2-2.7-1.4-2.7-3.3zm.8 0c0 1.5.8 2.5 1.9 2.5 1.2 0 2-1 2-2.5s-.8-2.5-2-2.5-1.9 1-1.9 2.5zM296.1 59.7c0-.3.2-.5.5-.5s.5.2.5.5-.2.5-.5.5c-.2 0-.5-.2-.5-.5zm.2 1.7h.8v6.1h-.8v-6.1zM298.4 61.4h.7v1.1c.3-.7 1-1.2 2-1.2 1.3 0 2.2.9 2.2 2.2v3.9h-.8v-3.8c0-1.1-.6-1.7-1.6-1.7-1.1 0-1.8.8-1.8 1.9v3.6h-.8v-6zM304.6 68.1h.8c.2.6.8 1 1.7 1 1.1 0 1.9-.7 1.9-1.7v-1.2c-.3.8-1.1 1.4-2.1 1.4-1.5 0-2.6-1.2-2.6-3.1 0-1.9 1-3.1 2.6-3.1 1 0 1.8.6 2.1 1.4v-1.3h.7v6c0 1.4-1 2.4-2.7 2.4-1.2-.1-2.2-.9-2.4-1.8zm4.4-3.6c0-1.5-.8-2.4-2-2.4-1.1 0-1.9 1-1.9 2.4 0 1.5.8 2.4 1.9 2.4 1.2 0 2-1 2-2.4zM276.1 116.3h-.8v-8.5h3c1.7 0 2.7 1 2.7 2.5 0 1.2-.7 2.1-1.8 2.4l2.1 3.6h-.9l-1.9-3.5h-2.2v3.5zm0-4.2h2.1c1.2 0 1.9-.7 1.9-1.8s-.7-1.8-2-1.8H276v3.6zM287 114.6c-.2 1.1-1.2 1.8-2.5 1.8-1.7 0-2.8-1.2-2.8-3.1 0-1.9 1.1-3.2 2.7-3.2s2.6 1.2 2.6 3v.3h-4.6c0 1.4.8 2.2 2 2.2.9 0 1.6-.5 1.7-1.1h.9zm-4.4-1.8h3.8c0-1.2-.8-2-1.9-2-1.1 0-1.9.8-1.9 2zM287.9 114.6c0-1 .8-1.7 2.2-1.8l1.9-.1v-.5c0-.9-.6-1.4-1.5-1.4s-1.5.4-1.6 1.2h-.8c.1-1.1 1-1.9 2.4-1.9s2.3.8 2.3 2v4.2h-.7v-1.2c-.3.8-1.2 1.3-2.1 1.3-1.2 0-2.1-.7-2.1-1.8zm4.1-.6v-.7l-1.8.1c-1 .1-1.5.5-1.5 1.2s.6 1.1 1.4 1.1c1.1 0 1.9-.7 1.9-1.7zM293.8 113.3c0-1.9 1.1-3.1 2.6-3.1 1 0 1.8.6 2.1 1.4V108h.8v8.5h-.7V115c-.3.8-1.1 1.4-2.1 1.4-1.6 0-2.7-1.3-2.7-3.1zm.8 0c0 1.5.8 2.5 1.9 2.5 1.2 0 2-1 2-2.5s-.8-2.5-2-2.5c-1.1 0-1.9 1-1.9 2.5zM300.7 118.5v-.7h.4c.6 0 .9-.3 1.1-1l.2-.5-2.3-6.1h.8l1.9 5.3 1.9-5.3h.8l-2.4 6.5c-.5 1.4-1 1.8-2 1.8h-.4zM272 165h-5.1v-8.5h5.1v.7h-4.3v3h4.1v.7h-4.1v3.2h4.3v.9zM275.3 162.5l-1.7 2.5h-.9l2.1-3.1-2.1-3h.9l1.7 2.4 1.7-2.4h.9l-2.1 3 2.1 3.1h-.9l-1.7-2.5zM283.6 163.3c-.2 1.1-1.2 1.8-2.5 1.8-1.7 0-2.8-1.2-2.8-3.1 0-1.9 1.1-3.2 2.7-3.2s2.6 1.2 2.6 3v.3H279c0 1.4.8 2.2 2 2.2.9 0 1.6-.5 1.7-1.1h.9zm-4.5-1.7h3.8c0-1.2-.8-2-1.9-2-1.1-.1-1.9.8-1.9 2zM288.9 160.9c-.2-.8-.8-1.3-1.7-1.3-1.2 0-2 1-2 2.5s.8 2.5 2 2.5c.9 0 1.6-.5 1.7-1.3h.8c-.2 1.2-1.2 2-2.5 2-1.7 0-2.8-1.2-2.8-3.1 0-1.9 1.1-3.1 2.8-3.1 1.4 0 2.4.9 2.5 2h-.8zM295.5 165h-.7v-1.1c-.3.8-1.1 1.2-2 1.2-1.3 0-2.2-.9-2.2-2.2v-4h.8v3.8c0 1.1.6 1.7 1.6 1.7 1.1 0 1.8-.7 1.8-1.9v-3.6h.8v6.1zM297.9 157.4v1.5h1.2v.6h-1.2v3.9c0 .6.2.9.8.9h.4v.7h-.6c-1 0-1.4-.4-1.4-1.5v-3.9h-.9v-.6h.9v-1.5h.8zM300.2 157.2c0-.3.2-.5.5-.5s.5.2.5.5-.2.5-.5.5-.5-.2-.5-.5zm.1 1.7h.8v6.1h-.8v-6.1zM302.5 158.9h.7v1.1c.3-.7 1-1.2 2-1.2 1.3 0 2.2.9 2.2 2.2v3.9h-.8v-3.8c0-1.1-.6-1.7-1.6-1.7-1.1 0-1.8.8-1.8 1.9v3.6h-.8v-6zM308.7 165.6h.8c.2.6.8 1 1.7 1 1.1 0 1.9-.7 1.9-1.7v-1.2c-.3.8-1.1 1.4-2.1 1.4-1.5 0-2.6-1.2-2.6-3.1 0-1.9 1-3.1 2.6-3.1 1 0 1.8.6 2.1 1.4V159h.7v6c0 1.4-1 2.4-2.7 2.4-1.3-.1-2.3-.8-2.4-1.8zm4.3-3.6c0-1.5-.8-2.4-2-2.4-1.1 0-1.9 1-1.9 2.4 0 1.5.8 2.4 1.9 2.4 1.3 0 2-1 2-2.4zM270.5 214.9v-8.5h5v.7h-4.2v3.2h3.9v.7h-3.9v3.8h-.8zM276.5 207c0-.3.2-.5.5-.5s.5.2.5.5-.2.5-.5.5-.5-.2-.5-.5zm.1 1.8h.8v6.1h-.8v-6.1zM278.8 208.8h.7v1.1c.3-.7 1-1.2 2-1.2 1.3 0 2.2.9 2.2 2.2v3.9h-.8V211c0-1.1-.6-1.7-1.6-1.7-1.1 0-1.8.8-1.8 1.9v3.6h-.8v-6zM284.9 207c0-.3.2-.5.5-.5s.5.2.5.5-.2.5-.5.5c-.2 0-.5-.2-.5-.5zm.2 1.8h.8v6.1h-.8v-6.1zM289.3 208.7c1.2 0 2.1.7 2.2 1.8h-.7c-.1-.7-.7-1.2-1.5-1.2s-1.4.4-1.4 1c0 .5.4.8 1.2 1l.9.2c1.2.3 1.7.8 1.7 1.6 0 1-1 1.8-2.3 1.8-1.3 0-2.2-.7-2.3-1.8h.8c.1.7.7 1.2 1.6 1.2s1.5-.4 1.5-1.1c0-.5-.3-.8-1.1-1l-1-.2c-1.1-.3-1.6-.8-1.6-1.6-.2-1 .7-1.7 2-1.7zM292.7 206.4h.8v3.5c.3-.8 1-1.2 2-1.2 1.3 0 2.2.9 2.2 2.3v3.9h-.8v-3.8c0-1.1-.6-1.7-1.6-1.7-1.1 0-1.8.8-1.8 1.9v3.6h-.8v-8.5zM304 213.1c-.2 1.1-1.2 1.8-2.5 1.8-1.7 0-2.8-1.2-2.8-3.1 0-1.9 1.1-3.2 2.7-3.2s2.6 1.2 2.6 3v.3h-4.6c0 1.4.8 2.2 2 2.2.9 0 1.6-.5 1.7-1.1h.9zm-4.5-1.7h3.8c0-1.2-.8-2-1.9-2-1.1-.1-1.8.8-1.9 2zM304.8 211.8c0-1.9 1.1-3.1 2.6-3.1 1 0 1.8.6 2.1 1.4v-3.6h.8v8.5h-.7v-1.3c-.3.8-1.1 1.4-2.1 1.4-1.6-.1-2.7-1.4-2.7-3.3zm.8 0c0 1.5.8 2.5 1.9 2.5 1.2 0 2-1 2-2.5s-.8-2.5-2-2.5c-1.1.1-1.9 1-1.9 2.5zM412.3 210.7c0-2.6 1.5-4.3 3.8-4.3 1.8 0 3.2 1.2 3.4 2.8h-.8c-.2-1.2-1.3-2.1-2.6-2.1-1.8 0-2.9 1.4-2.9 3.6s1.2 3.6 3 3.6c1.3 0 2.4-.7 2.6-1.9h.8c-.3 1.6-1.6 2.6-3.4 2.6-2.4 0-3.9-1.7-3.9-4.3zM420.3 213.2c0-1 .8-1.7 2.2-1.8l1.9-.1v-.5c0-.9-.6-1.4-1.5-1.4s-1.5.4-1.6 1.2h-.8c.1-1.1 1-1.9 2.4-1.9s2.3.8 2.3 2v4.2h-.7v-1.2c-.3.8-1.2 1.3-2.1 1.3-1.2 0-2.1-.7-2.1-1.8zm4.1-.6v-.7l-1.8.1c-1 .1-1.5.5-1.5 1.2s.6 1.1 1.4 1.1c1.1 0 1.9-.7 1.9-1.7zM426.5 208.8h.7v1.1c.3-.7 1-1.2 2-1.2 1.3 0 2.2.9 2.2 2.2v3.9h-.8V211c0-1.1-.6-1.7-1.6-1.7-1.1 0-1.8.8-1.8 1.9v3.6h-.8v-6zM436.9 210.7c-.2-.8-.8-1.3-1.7-1.3-1.2 0-2 1-2 2.5s.8 2.5 2 2.5c.9 0 1.6-.5 1.7-1.3h.8c-.2 1.2-1.2 2-2.5 2-1.7 0-2.8-1.2-2.8-3.1 0-1.9 1.1-3.1 2.8-3.1 1.4 0 2.4.9 2.5 2h-.8zM443.6 213.2c-.2 1.1-1.2 1.8-2.5 1.8-1.7 0-2.8-1.2-2.8-3.1 0-1.9 1.1-3.2 2.7-3.2s2.6 1.2 2.6 3v.3H439c0 1.4.8 2.2 2 2.2.9 0 1.6-.5 1.7-1.1h.9zm-4.4-1.8h3.8c0-1.2-.8-2-1.9-2-1.1 0-1.9.8-1.9 2zM444.8 206.5h.8v8.5h-.8v-8.5zM447 206.5h.8v8.5h-.8v-8.5zM454.2 213.2c-.2 1.1-1.2 1.8-2.5 1.8-1.7 0-2.8-1.2-2.8-3.1 0-1.9 1.1-3.2 2.7-3.2s2.6 1.2 2.6 3v.3h-4.6c0 1.4.8 2.2 2 2.2.9 0 1.6-.5 1.7-1.1h.9zm-4.5-1.8h3.8c0-1.2-.8-2-1.9-2-1.1 0-1.9.8-1.9 2zM455 211.9c0-1.9 1.1-3.1 2.6-3.1 1 0 1.8.6 2.1 1.4v-3.6h.8v8.5h-.7v-1.3c-.3.8-1.1 1.4-2.1 1.4-1.7-.2-2.7-1.4-2.7-3.3zm.8 0c0 1.5.8 2.5 1.9 2.5 1.2 0 2-1 2-2.5s-.8-2.5-2-2.5-1.9 1-1.9 2.5z" class="st0"/></g></svg>